<svg width="32" height="33" viewBox="0 0 32 33" fill="none" xmlns="http://www.w3.org/2000/svg">
<path d="M24.872 23.7022L28.778 27.6062C28.9601 27.7948 29.0609 28.0474 29.0586 28.3096C29.0564 28.5718 28.9512 28.8226 28.7658 29.008C28.5804 29.1934 28.3296 29.2986 28.0674 29.3009C27.8052 29.3032 27.5526 29.2024 27.364 29.0202L23.458 25.1142C20.9055 27.3011 17.6052 28.4144 14.2496 28.2204C10.894 28.0264 7.74397 26.5403 5.46048 24.0739C3.17698 21.6075 1.93754 18.3524 2.00223 14.9919C2.06692 11.6313 3.43071 8.4264 5.80743 6.04968C8.18415 3.67296 11.3891 2.30916 14.7496 2.24448C18.1102 2.17979 21.3652 3.41923 23.8316 5.70273C26.2981 7.98622 27.7842 11.1363 27.9781 14.4919C28.1721 17.8474 27.0589 21.1477 24.872 23.7002V23.7022ZM15 26.2422C17.9174 26.2422 20.7153 25.0833 22.7781 23.0204C24.841 20.9575 26 18.1596 26 15.2422C26 12.3248 24.841 9.52695 22.7781 7.46405C20.7153 5.40115 17.9174 4.24223 15 4.24223C12.0826 4.24223 9.2847 5.40115 7.2218 7.46405C5.1589 9.52695 3.99998 12.3248 3.99998 15.2422C3.99998 18.1596 5.1589 20.9575 7.2218 23.0204C9.2847 25.0833 12.0826 26.2422 15 26.2422Z" fill="white"/>
</svg>
