<svg width="883" height="283" viewBox="0 0 883 283" fill="none" xmlns="http://www.w3.org/2000/svg">
<path d="M338.543 279.327V79.5467L209.515 279.327H190.545L61.3462 78.6922V279.327H39.9839V44.5125H62.8843L200.628 257.281L336.834 44.5125H359.564V279.327H338.543Z" fill="white"/>
<path d="M376.504 280.809C375.821 279.102 375.266 276.926 374.84 274.281C374.413 271.55 374.157 268.692 374.072 265.705C374.072 262.718 374.157 259.902 374.328 257.257C374.584 254.526 375.01 252.308 375.608 250.601C376.888 250.089 378.125 249.278 379.32 248.169C380.514 247.06 381.496 245.396 382.264 243.177C383.117 240.958 383.544 237.929 383.544 234.089C383.544 230.334 383.032 227.433 382.008 225.385C381.069 223.252 379.96 221.716 378.68 220.777C377.485 219.753 376.461 219.028 375.608 218.601C374.84 217.15 374.285 215.102 373.944 212.457C373.602 209.726 373.432 206.782 373.432 203.625C373.517 200.468 373.773 197.438 374.2 194.537C374.626 191.636 375.266 189.246 376.12 187.369C377.058 187.454 377.869 187.582 378.552 187.753C379.234 187.838 380.002 187.924 380.856 188.009C380.514 193.3 381.581 197.865 384.056 201.705C386.53 205.46 389.901 208.148 394.168 209.769C398.52 211.39 403.128 211.732 407.992 210.793C403.896 210.622 400.098 209.556 396.6 207.593C393.186 205.545 390.413 202.857 388.28 199.529C386.232 196.116 385.208 192.318 385.208 188.137C385.208 184.638 386.018 181.268 387.64 178.025C389.346 174.697 392.162 171.966 396.088 169.833C400.013 167.614 405.304 166.505 411.96 166.505C422.626 166.505 430.392 169.193 435.256 174.569C440.205 179.86 442.68 187.71 442.68 198.121C442.68 202.985 442.253 207.465 441.4 211.561C440.632 215.572 439.821 219.454 438.968 223.209C438.2 226.878 437.816 230.633 437.816 234.473C437.816 238.142 438.2 241.086 438.968 243.305C439.821 245.524 440.845 247.188 442.04 248.297C443.32 249.321 444.557 250.089 445.752 250.601C446.349 252.308 446.733 254.526 446.904 257.257C447.16 259.902 447.245 262.718 447.16 265.705C447.16 268.692 446.946 271.55 446.52 274.281C446.093 276.926 445.538 279.102 444.856 280.809C442.466 280.553 439.352 280.254 435.512 279.913C431.757 279.657 427.661 279.401 423.224 279.145C418.786 278.974 414.349 278.889 409.912 278.889C405.816 278.889 401.634 278.974 397.368 279.145C393.186 279.401 389.261 279.657 385.592 279.913C381.922 280.254 378.893 280.553 376.504 280.809ZM524.699 282.729C513.776 282.729 505.413 281.364 499.611 278.633C493.893 275.902 490.949 271.081 490.779 264.169C489.755 267.07 489.413 269.801 489.755 272.361C490.181 274.836 490.821 277.31 491.675 279.785C483.227 280.041 475.547 280.297 468.635 280.553C461.723 280.809 456.005 280.894 451.483 280.809C450.373 274.494 449.733 268.222 449.563 261.993C449.477 255.764 449.947 249.193 450.971 242.281C457.2 242.281 463.173 243.049 468.891 244.585C474.693 246.036 479.813 248.382 484.251 251.625L486.683 248.681C484.208 246.889 481.605 245.438 478.875 244.329C476.229 243.134 473.413 242.068 470.427 241.129C466.416 239.764 462.747 237.972 459.419 235.753C456.176 233.534 453.616 230.718 451.739 227.305C449.861 223.892 448.923 219.71 448.923 214.761C448.923 209.47 450.117 204.606 452.507 200.169C454.981 195.732 458.864 192.19 464.155 189.545C469.445 186.814 476.272 185.449 484.635 185.449C495.472 185.449 503.792 186.9 509.595 189.801C515.483 192.617 518.512 197.694 518.683 205.033C519.792 202.046 520.176 199.273 519.835 196.713C519.579 194.068 518.939 191.294 517.915 188.393C523.973 188.308 529.179 188.222 533.531 188.137C537.968 187.966 541.979 187.838 545.563 187.753C549.147 187.582 552.603 187.497 555.931 187.497C557.125 193.129 557.765 199.23 557.851 205.801C557.936 212.372 557.509 219.07 556.571 225.897C550.341 225.812 545.093 225.172 540.827 223.977C536.56 222.782 532.421 220.948 528.411 218.473L526.235 221.545C528.368 222.91 530.331 224.02 532.123 224.873C533.915 225.641 535.536 226.324 536.987 226.921C542.192 229.054 546.459 231.358 549.787 233.833C553.115 236.222 555.589 239.166 557.211 242.665C558.832 246.078 559.643 250.345 559.643 255.465C559.643 261.694 558.533 266.644 556.315 270.313C554.096 273.982 551.195 276.713 547.611 278.505C544.112 280.212 540.315 281.321 536.219 281.833C532.208 282.43 528.368 282.729 524.699 282.729ZM563.736 280.809C562.882 278.078 562.242 274.836 561.816 271.081C561.474 267.326 561.389 263.572 561.56 259.817C561.73 256.062 562.157 252.948 562.84 250.473C564.802 249.961 566.594 248.638 568.216 246.505C569.837 244.286 570.648 240.617 570.648 235.497C570.648 231.145 570.178 227.774 569.24 225.385C568.386 222.91 567.405 221.161 566.296 220.137C565.186 219.113 564.205 218.558 563.352 218.473C562.498 215.657 561.901 212.329 561.56 208.489C561.304 204.564 561.346 200.681 561.688 196.841C562.114 193.001 562.84 189.844 563.864 187.369C567.874 187.881 572.354 188.308 577.304 188.649C582.253 188.905 587.074 189.033 591.768 189.033C597.656 189.033 603.202 188.99 608.408 188.905C613.698 188.734 618.008 188.564 621.336 188.393C620.226 189.588 619.032 191.636 617.752 194.537C616.557 197.353 615.576 200.34 614.808 203.497C614.125 206.654 613.912 209.428 614.168 211.817C616.472 204.222 620.781 198.121 627.096 193.513C633.496 188.82 641.986 186.473 652.568 186.473C658.285 186.473 663.064 187.198 666.904 188.649C670.744 190.014 673.73 192.83 675.864 197.097C674.413 198.718 672.962 200.468 671.512 202.345C670.061 204.137 668.696 206.185 667.416 208.489L670.616 210.281C674.626 203.198 680.002 197.481 686.744 193.129C693.57 188.692 700.952 186.473 708.888 186.473C715.714 186.473 721.133 187.454 725.144 189.417C729.24 191.38 732.269 195.39 734.232 201.449C735.426 204.948 735.981 208.532 735.896 212.201C735.81 215.785 735.554 219.412 735.128 223.081C734.701 226.665 734.488 230.249 734.488 233.833C734.488 237.758 734.872 240.873 735.64 243.177C736.408 245.396 737.389 247.06 738.584 248.169C739.864 249.278 741.101 250.046 742.296 250.473C743.064 252.948 743.49 256.062 743.576 259.817C743.746 263.572 743.661 267.326 743.32 271.081C742.978 274.836 742.381 278.078 741.528 280.809C738.285 280.468 734.402 280.041 729.88 279.529C725.357 279.102 719.853 278.889 713.368 278.889C706.37 278.889 700.184 279.102 694.808 279.529C689.432 280.041 685.165 280.468 682.008 280.809C681.581 278.505 681.24 275.476 680.984 271.721C680.728 267.881 680.642 263.913 680.728 259.817C680.898 255.721 681.24 252.18 681.752 249.193V231.529H677.016V249.193C677.613 252.18 677.954 255.721 678.04 259.817C678.21 263.913 678.168 267.881 677.912 271.721C677.656 275.476 677.229 278.505 676.632 280.809C674.584 280.553 672.536 280.254 670.488 279.913C668.44 279.657 666.093 279.401 663.448 279.145C660.888 278.889 657.73 278.761 653.976 278.761C649.197 278.761 644.418 279.017 639.64 279.529C634.946 280.041 631.021 280.468 627.864 280.809C627.437 278.505 627.096 275.476 626.84 271.721C626.584 267.881 626.498 263.913 626.584 259.817C626.754 255.721 627.096 252.18 627.608 249.193V231.529H622.872V249.193C623.469 252.18 623.81 255.721 623.896 259.817C624.066 263.913 624.024 267.881 623.768 271.721C623.512 275.476 623.085 278.505 622.488 280.809C620.44 280.553 618.178 280.254 615.704 279.913C613.229 279.657 610.157 279.401 606.488 279.145C602.904 278.974 598.296 278.889 592.664 278.889C586.861 278.889 581.442 279.102 576.408 279.529C571.458 279.956 567.234 280.382 563.736 280.809ZM821.199 282.729C810.276 282.729 801.913 281.364 796.111 278.633C790.393 275.902 787.449 271.081 787.279 264.169C786.255 267.07 785.913 269.801 786.255 272.361C786.681 274.836 787.321 277.31 788.175 279.785C779.727 280.041 772.047 280.297 765.135 280.553C758.223 280.809 752.505 280.894 747.983 280.809C746.873 274.494 746.233 268.222 746.063 261.993C745.977 255.764 746.447 249.193 747.471 242.281C753.7 242.281 759.673 243.049 765.391 244.585C771.193 246.036 776.313 248.382 780.751 251.625L783.183 248.681C780.708 246.889 778.105 245.438 775.375 244.329C772.729 243.134 769.913 242.068 766.927 241.129C762.916 239.764 759.247 237.972 755.919 235.753C752.676 233.534 750.116 230.718 748.239 227.305C746.361 223.892 745.423 219.71 745.423 214.761C745.423 209.47 746.617 204.606 749.007 200.169C751.481 195.732 755.364 192.19 760.655 189.545C765.945 186.814 772.772 185.449 781.135 185.449C791.972 185.449 800.292 186.9 806.095 189.801C811.983 192.617 815.012 197.694 815.183 205.033C816.292 202.046 816.676 199.273 816.335 196.713C816.079 194.068 815.439 191.294 814.415 188.393C820.473 188.308 825.679 188.222 830.031 188.137C834.468 187.966 838.479 187.838 842.063 187.753C845.647 187.582 849.103 187.497 852.431 187.497C853.625 193.129 854.265 199.23 854.351 205.801C854.436 212.372 854.009 219.07 853.071 225.897C846.841 225.812 841.593 225.172 837.327 223.977C833.06 222.782 828.921 220.948 824.911 218.473L822.735 221.545C824.868 222.91 826.831 224.02 828.623 224.873C830.415 225.641 832.036 226.324 833.487 226.921C838.692 229.054 842.959 231.358 846.287 233.833C849.615 236.222 852.089 239.166 853.711 242.665C855.332 246.078 856.143 250.345 856.143 255.465C856.143 261.694 855.033 266.644 852.815 270.313C850.596 273.982 847.695 276.713 844.111 278.505C840.612 280.212 836.815 281.321 832.719 281.833C828.708 282.43 824.868 282.729 821.199 282.729Z" fill="white"/>
</svg>
